<svg xmlns="http://www.w3.org/2000/svg" viewBox="0 0 1200 520" role="img" aria-label="Fragas do Eume">
<rect width="1200" height="520" rx="36" fill="#173b2c"/>
<circle cx="1040" cy="100" r="55" fill="#9bcf53" opacity=".9"/>
<path d="M0 380 Q220 310 430 360 T820 340 T1200 360 V520 H0Z" fill="#4f8a5b"/><path d="M120 390 L150 240 L180 390Z" fill="#4f8a5b"/><rect x="145" y="240" width="10" height="150" fill="#9bcf53" opacity=".7"/><path d="M220 390 L250 200 L280 390Z" fill="#4f8a5b"/><rect x="245" y="200" width="10" height="190" fill="#9bcf53" opacity=".7"/><path d="M330 390 L360 250 L390 390Z" fill="#4f8a5b"/><rect x="355" y="250" width="10" height="140" fill="#9bcf53" opacity=".7"/><path d="M470 390 L500 180 L530 390Z" fill="#4f8a5b"/><rect x="495" y="180" width="10" height="210" fill="#9bcf53" opacity=".7"/><path d="M620 390 L650 225 L680 390Z" fill="#4f8a5b"/><rect x="645" y="225" width="10" height="165" fill="#9bcf53" opacity=".7"/><path d="M760 390 L790 185 L820 390Z" fill="#4f8a5b"/><rect x="785" y="185" width="10" height="205" fill="#9bcf53" opacity=".7"/><path d="M900 390 L930 240 L960 390Z" fill="#4f8a5b"/><rect x="925" y="240" width="10" height="150" fill="#9bcf53" opacity=".7"/><path d="M1050 390 L1080 200 L1110 390Z" fill="#4f8a5b"/><rect x="1075" y="200" width="10" height="190" fill="#9bcf53" opacity=".7"/><path d="M0 420 Q300 380 600 425 T1200 415" fill="none" stroke="#eef2dc" stroke-width="9" opacity=".75"/>
<rect x="55" y="55" width="390" height="92" rx="20" fill="#eef2dc" opacity=".96"/>
<text x="82" y="92" font-family="Arial,sans-serif" font-size="25" font-weight="700" fill="#173b2c">ORIXE · MISIÓN</text>
<text x="82" y="125" font-family="Arial,sans-serif" font-size="21" fill="#173b2c">Fragas do Eume</text>
<text x="55" y="478" font-family="Arial,sans-serif" font-size="20" font-weight="700" fill="#eef2dc">PONTEDEUME</text>
<text x="1145" y="478" text-anchor="end" font-family="Arial,sans-serif" font-size="18" fill="#eef2dc" opacity=".9">DESCUBRE · JUEGA · RESUELVE</text>
</svg>